<svg xmlns="http://www.w3.org/2000/svg" width="897.004" height="123.413" id="converse"><path d="M195.471 0H123.54a22.738 22.738 0 0 0-22.748 22.726v77.645A22.737 22.737 0 0 0 123.54 123.1h71.932a22.736 22.736 0 0 0 22.748-22.724v-77.65A22.738 22.738 0 0 0 195.471 0Zm-12.006 71.543 16.324 48.134-38.968-30.248-37.65 29.985L138.179 72.6l-34.755-26.3H146.6l13.69-42.873L174.771 46.3h40.546l-31.852 25.243Zm291.542 51.867a26.529 26.529 0 0 1-26.542-26.51V29.016A26.529 26.529 0 0 1 475.007 2.5h65.616v32.529h-57.14v11.662h57.14v32.53h-57.14v11.662h57.14v32.53ZM328.618 29.016A26.527 26.527 0 0 0 302.078 2.5H229.7v120.913h35.021V35.027H293.6v88.385h35.02v-94.4Zm-302.078 94.4A26.527 26.527 0 0 1 0 96.9V29.012A26.529 26.529 0 0 1 26.541 2.5h64.39v32.527h-55.91v55.856h55.911v32.53ZM327.1 2.5h36.251l23.961 73.655L411.892 2.5h36.249l-40.55 120.916h-40.55Zm407.895 120.91a26.528 26.528 0 0 0 26.541-26.51V73.207a26.528 26.528 0 0 0-26.542-26.513h-36.74V35.029h58.986V2.5h-67.46a26.528 26.528 0 0 0-26.54 26.515V52.7a26.529 26.529 0 0 0 26.539 26.515h37.356v11.667h-63.9v32.531h71.76Zm129.16 0h-65.616A26.528 26.528 0 0 1 772 96.9V29.016A26.528 26.528 0 0 1 798.539 2.5h65.616v32.529h-57.138v11.662h57.138v32.53h-57.138v11.662h57.138Zm-230.378-45.9a26.528 26.528 0 0 0 17.151-24.81V29.016A26.528 26.528 0 0 0 624.388 2.5h-71.146v120.913h35.02V54.669l31.338 68.744h35.635ZM617.134 46.6h-28.878V34.939h28.878ZM893.5 7.883a11.981 11.981 0 0 0-16.892 0 11.487 11.487 0 0 0-3.5 8.43 11.6 11.6 0 0 0 3.472 8.479 11.944 11.944 0 0 0 16.925 0 11.57 11.57 0 0 0 3.5-8.479 11.442 11.442 0 0 0-3.5-8.43Zm-1.188 15.753a10.268 10.268 0 0 1-14.563 0 10.049 10.049 0 0 1-2.983-7.323 9.932 9.932 0 0 1 3-7.275 10.252 10.252 0 0 1 14.548 0 9.932 9.932 0 0 1 3 7.275 10.023 10.023 0 0 1-3.003 7.324Z" data-name="Path 3123"></path><path d="M890.357 22.676a2.088 2.088 0 0 1-.113-.684q-.033-.487-.034-.976v-.96a3.6 3.6 0 0 0-.714-2.035 3.2 3.2 0 0 0-2.267-1.285 5.029 5.029 0 0 0 1.908-.635 2.859 2.859 0 0 0 1.286-2.587 3.252 3.252 0 0 0-2.038-3.32 10.032 10.032 0 0 0-3.583-.471h-4.594v13.118h2.313v-5.175h1.824a5.561 5.561 0 0 1 2.573.422c.827.489 1.237 1.492 1.237 3.011v1.042l.049.424.034.146.031.131h2.168l-.081-.165Zm-3.55-6.928a6.244 6.244 0 0 1-2.2.293h-2.084v-4.752h1.971a5.979 5.979 0 0 1 2.792.488 2 2 0 0 1 .871 1.921 2.015 2.015 0 0 1-1.351 2.05Z" data-name="Path 3124"></path></svg>